<mxfile host="app.diagrams.net" modified="2023-07-17T14:56:18.696Z" agent="Mozilla/5.0 (Windows NT 10.0; Win64; x64) AppleWebKit/537.36 (KHTML, like Gecko) Chrome/114.0.0.0 Safari/537.36" etag="TSDTeN5MTtFGoURrOTKK" version="21.6.2" type="google">
  <diagram id="P9JxTVQZ8V056-itW6Io" name="Trang-1">
    <mxGraphModel dx="1290" dy="515" grid="1" gridSize="10" guides="1" tooltips="1" connect="1" arrows="1" fold="1" page="1" pageScale="1" pageWidth="827" pageHeight="1169" math="0" shadow="0">
      <root>
        <mxCell id="0" />
        <mxCell id="1" parent="0" />
        <mxCell id="5nPi2bsa1zb0nJHhOOTF-1" value="Start" style="rounded=1;whiteSpace=wrap;html=1;" parent="1" vertex="1">
          <mxGeometry x="354" width="86" height="40" as="geometry" />
        </mxCell>
        <mxCell id="5nPi2bsa1zb0nJHhOOTF-2" value="&lt;font style=&quot;font-size: 10px;&quot;&gt;IsAuto&lt;/font&gt;" style="rhombus;whiteSpace=wrap;html=1;" parent="1" vertex="1">
          <mxGeometry x="360" y="260" width="80" height="60" as="geometry" />
        </mxCell>
        <mxCell id="5nPi2bsa1zb0nJHhOOTF-4" value="" style="endArrow=classic;html=1;rounded=0;exitX=0.5;exitY=1;exitDx=0;exitDy=0;" parent="1" source="5nPi2bsa1zb0nJHhOOTF-14" edge="1">
          <mxGeometry width="50" height="50" relative="1" as="geometry">
            <mxPoint x="399" y="240" as="sourcePoint" />
            <mxPoint x="400" y="260" as="targetPoint" />
          </mxGeometry>
        </mxCell>
        <mxCell id="5nPi2bsa1zb0nJHhOOTF-6" value="" style="endArrow=classic;html=1;rounded=0;exitX=0.5;exitY=1;exitDx=0;exitDy=0;entryX=0.514;entryY=0.002;entryDx=0;entryDy=0;entryPerimeter=0;" parent="1" source="5nPi2bsa1zb0nJHhOOTF-2" target="5nPi2bsa1zb0nJHhOOTF-10" edge="1">
          <mxGeometry width="50" height="50" relative="1" as="geometry">
            <mxPoint x="369" y="400" as="sourcePoint" />
            <mxPoint x="399" y="360" as="targetPoint" />
          </mxGeometry>
        </mxCell>
        <mxCell id="5nPi2bsa1zb0nJHhOOTF-9" value="False" style="text;html=1;align=center;verticalAlign=middle;resizable=0;points=[];autosize=1;strokeColor=none;fillColor=none;" parent="1" vertex="1">
          <mxGeometry x="349" y="320" width="50" height="30" as="geometry" />
        </mxCell>
        <mxCell id="5nPi2bsa1zb0nJHhOOTF-10" value="Send data to Blynk" style="rounded=0;whiteSpace=wrap;html=1;" parent="1" vertex="1">
          <mxGeometry x="359" y="360" width="80" height="40" as="geometry" />
        </mxCell>
        <mxCell id="5nPi2bsa1zb0nJHhOOTF-11" value="&lt;font style=&quot;font-size: 10px;&quot;&gt;ReadSensor&lt;br&gt;(DHT11, M9BI)&lt;/font&gt;" style="rounded=0;whiteSpace=wrap;html=1;" parent="1" vertex="1">
          <mxGeometry x="359" y="80" width="81" height="40" as="geometry" />
        </mxCell>
        <mxCell id="5nPi2bsa1zb0nJHhOOTF-12" value="" style="endArrow=classic;html=1;rounded=0;entryX=0.5;entryY=0;entryDx=0;entryDy=0;exitX=0.529;exitY=1.003;exitDx=0;exitDy=0;exitPerimeter=0;" parent="1" source="5nPi2bsa1zb0nJHhOOTF-1" target="5nPi2bsa1zb0nJHhOOTF-11" edge="1">
          <mxGeometry width="50" height="50" relative="1" as="geometry">
            <mxPoint x="400" y="50" as="sourcePoint" />
            <mxPoint x="420" y="180" as="targetPoint" />
          </mxGeometry>
        </mxCell>
        <mxCell id="5nPi2bsa1zb0nJHhOOTF-13" value="" style="endArrow=classic;html=1;rounded=0;exitX=0.5;exitY=1;exitDx=0;exitDy=0;" parent="1" source="5nPi2bsa1zb0nJHhOOTF-11" edge="1">
          <mxGeometry width="50" height="50" relative="1" as="geometry">
            <mxPoint x="360" y="140" as="sourcePoint" />
            <mxPoint x="400" y="160" as="targetPoint" />
          </mxGeometry>
        </mxCell>
        <mxCell id="5nPi2bsa1zb0nJHhOOTF-14" value="&lt;font style=&quot;font-size: 10px;&quot;&gt;IsConnected&lt;/font&gt;" style="rhombus;whiteSpace=wrap;html=1;" parent="1" vertex="1">
          <mxGeometry x="360" y="160" width="80" height="60" as="geometry" />
        </mxCell>
        <mxCell id="5nPi2bsa1zb0nJHhOOTF-15" value="" style="endArrow=classic;html=1;rounded=0;exitX=1;exitY=0.5;exitDx=0;exitDy=0;entryX=0.5;entryY=0;entryDx=0;entryDy=0;" parent="1" source="5nPi2bsa1zb0nJHhOOTF-14" target="5nPi2bsa1zb0nJHhOOTF-17" edge="1">
          <mxGeometry width="50" height="50" relative="1" as="geometry">
            <mxPoint x="360" y="250" as="sourcePoint" />
            <mxPoint x="560" y="220" as="targetPoint" />
            <Array as="points">
              <mxPoint x="600" y="190" />
            </Array>
          </mxGeometry>
        </mxCell>
        <mxCell id="5nPi2bsa1zb0nJHhOOTF-16" value="False" style="text;html=1;align=center;verticalAlign=middle;resizable=0;points=[];autosize=1;strokeColor=none;fillColor=none;" parent="1" vertex="1">
          <mxGeometry x="490" y="160" width="50" height="30" as="geometry" />
        </mxCell>
        <mxCell id="5nPi2bsa1zb0nJHhOOTF-17" value="AutoMode" style="rounded=0;whiteSpace=wrap;html=1;" parent="1" vertex="1">
          <mxGeometry x="560" y="360" width="80" height="40" as="geometry" />
        </mxCell>
        <mxCell id="5nPi2bsa1zb0nJHhOOTF-18" value="" style="endArrow=none;html=1;rounded=0;exitX=1;exitY=0.5;exitDx=0;exitDy=0;endFill=0;" parent="1" source="5nPi2bsa1zb0nJHhOOTF-2" edge="1">
          <mxGeometry width="50" height="50" relative="1" as="geometry">
            <mxPoint x="470" y="250" as="sourcePoint" />
            <mxPoint x="540" y="380" as="targetPoint" />
            <Array as="points">
              <mxPoint x="520" y="290" />
              <mxPoint x="520" y="380" />
            </Array>
          </mxGeometry>
        </mxCell>
        <mxCell id="5nPi2bsa1zb0nJHhOOTF-19" value="True" style="text;html=1;align=center;verticalAlign=middle;resizable=0;points=[];autosize=1;strokeColor=none;fillColor=none;" parent="1" vertex="1">
          <mxGeometry x="490" y="260" width="50" height="30" as="geometry" />
        </mxCell>
        <mxCell id="5nPi2bsa1zb0nJHhOOTF-20" value="" style="endArrow=classic;html=1;rounded=0;" parent="1" edge="1">
          <mxGeometry width="50" height="50" relative="1" as="geometry">
            <mxPoint x="400" y="400" as="sourcePoint" />
            <mxPoint x="400" y="440" as="targetPoint" />
          </mxGeometry>
        </mxCell>
        <mxCell id="5nPi2bsa1zb0nJHhOOTF-21" value="Get data from Blynk" style="rounded=0;whiteSpace=wrap;html=1;" parent="1" vertex="1">
          <mxGeometry x="360" y="440" width="80" height="40" as="geometry" />
        </mxCell>
        <mxCell id="5nPi2bsa1zb0nJHhOOTF-22" value="" style="endArrow=classic;html=1;rounded=0;exitX=0.5;exitY=1;exitDx=0;exitDy=0;" parent="1" source="5nPi2bsa1zb0nJHhOOTF-21" edge="1">
          <mxGeometry width="50" height="50" relative="1" as="geometry">
            <mxPoint x="420" y="420" as="sourcePoint" />
            <mxPoint x="400" y="520" as="targetPoint" />
          </mxGeometry>
        </mxCell>
        <mxCell id="5nPi2bsa1zb0nJHhOOTF-23" value="Control relay" style="rounded=0;whiteSpace=wrap;html=1;" parent="1" vertex="1">
          <mxGeometry x="359" y="520" width="81" height="40" as="geometry" />
        </mxCell>
        <mxCell id="5nPi2bsa1zb0nJHhOOTF-24" value="" style="endArrow=classic;html=1;rounded=0;exitX=0.5;exitY=1;exitDx=0;exitDy=0;entryX=0.513;entryY=0.006;entryDx=0;entryDy=0;entryPerimeter=0;" parent="1" source="5nPi2bsa1zb0nJHhOOTF-23" target="5nPi2bsa1zb0nJHhOOTF-25" edge="1">
          <mxGeometry width="50" height="50" relative="1" as="geometry">
            <mxPoint x="420" y="560" as="sourcePoint" />
            <mxPoint x="400" y="640" as="targetPoint" />
          </mxGeometry>
        </mxCell>
        <mxCell id="5nPi2bsa1zb0nJHhOOTF-25" value="End" style="rounded=1;whiteSpace=wrap;html=1;" parent="1" vertex="1">
          <mxGeometry x="359" y="600" width="80" height="40" as="geometry" />
        </mxCell>
        <mxCell id="5nPi2bsa1zb0nJHhOOTF-26" value="" style="endArrow=classic;html=1;rounded=0;" parent="1" edge="1">
          <mxGeometry width="50" height="50" relative="1" as="geometry">
            <mxPoint x="400" y="580" as="sourcePoint" />
            <mxPoint x="400" y="60" as="targetPoint" />
            <Array as="points">
              <mxPoint x="280" y="580" />
              <mxPoint x="280" y="60" />
              <mxPoint x="340" y="60" />
            </Array>
          </mxGeometry>
        </mxCell>
        <mxCell id="5nPi2bsa1zb0nJHhOOTF-28" value="" style="endArrow=classic;html=1;rounded=0;exitX=0.5;exitY=1;exitDx=0;exitDy=0;" parent="1" source="5nPi2bsa1zb0nJHhOOTF-17" target="5nPi2bsa1zb0nJHhOOTF-29" edge="1">
          <mxGeometry width="50" height="50" relative="1" as="geometry">
            <mxPoint x="420" y="490" as="sourcePoint" />
            <mxPoint x="480" y="500" as="targetPoint" />
            <Array as="points" />
          </mxGeometry>
        </mxCell>
        <mxCell id="5nPi2bsa1zb0nJHhOOTF-29" value="Calculate" style="rounded=0;whiteSpace=wrap;html=1;" parent="1" vertex="1">
          <mxGeometry x="560" y="440" width="80" height="40" as="geometry" />
        </mxCell>
        <mxCell id="5nPi2bsa1zb0nJHhOOTF-30" value="" style="endArrow=classic;html=1;rounded=0;exitX=0.5;exitY=1;exitDx=0;exitDy=0;" parent="1" source="5nPi2bsa1zb0nJHhOOTF-29" edge="1">
          <mxGeometry width="50" height="50" relative="1" as="geometry">
            <mxPoint x="420" y="500" as="sourcePoint" />
            <mxPoint x="400" y="500" as="targetPoint" />
            <Array as="points">
              <mxPoint x="600" y="500" />
            </Array>
          </mxGeometry>
        </mxCell>
        <mxCell id="-1bM3hmpHCZ5mqe_5ATX-1" value="True" style="text;html=1;align=center;verticalAlign=middle;resizable=0;points=[];autosize=1;strokeColor=none;fillColor=none;" parent="1" vertex="1">
          <mxGeometry x="349" y="220" width="50" height="30" as="geometry" />
        </mxCell>
        <mxCell id="9Ra9B28n5dbz0Yicidir-3" value="" style="endArrow=classic;html=1;rounded=0;entryX=0;entryY=0.5;entryDx=0;entryDy=0;" parent="1" target="5nPi2bsa1zb0nJHhOOTF-17" edge="1">
          <mxGeometry width="50" height="50" relative="1" as="geometry">
            <mxPoint x="540" y="380" as="sourcePoint" />
            <mxPoint x="590" y="350" as="targetPoint" />
          </mxGeometry>
        </mxCell>
      </root>
    </mxGraphModel>
  </diagram>
</mxfile>
